<?xml version="1.0" encoding="UTF-8"?>
<svg width="1024" height="1024" viewBox="0 0 1024 1024" xmlns="http://www.w3.org/2000/svg">
    <defs>
        <!-- 主背景渐变 -->
        <linearGradient id="bgGradient" x1="0%" y1="0%" x2="100%" y2="100%">
            <stop offset="0%" style="stop-color:#FF8DC7;stop-opacity:1" />
            <stop offset="100%" style="stop-color:#FF69B4;stop-opacity:1" />
        </linearGradient>
        
        <!-- 花瓣渐变 -->
        <linearGradient id="petalGradient" x1="0%" y1="0%" x2="100%" y2="100%">
            <stop offset="0%" style="stop-color:#FFFFFF;stop-opacity:1" />
            <stop offset="100%" style="stop-color:#FFF0F5;stop-opacity:1" />
        </linearGradient>
        
        <!-- 阴影效果 -->
        <filter id="dropShadow" x="-20%" y="-20%" width="140%" height="140%">
            <feGaussianBlur in="SourceAlpha" stdDeviation="15" />
            <feOffset dx="0" dy="10" result="offsetblur" />
            <feComponentTransfer>
                <feFuncA type="linear" slope="0.3" />
            </feComponentTransfer>
            <feMerge>
                <feMergeNode />
                <feMergeNode in="SourceGraphic" />
            </feMerge>
        </filter>
    </defs>

    <!-- 背景圆角矩形 -->
    <rect x="62" y="62" width="900" height="900" rx="200" ry="200" 
          fill="url(#bgGradient)" 
          filter="url(#dropShadow)" />

    <!-- 山茶花 -->
    <g transform="translate(512, 512)" fill="url(#petalGradient)">
        <!-- 内层花瓣 -->
        <g id="inner-petals">
            <g transform="rotate(0)">
                <path d="M-40,-20 C-60,-60 -40,-100 0,-80 C40,-100 60,-60 40,-20 C20,-30 -20,-30 -40,-20" />
            </g>
            <g transform="rotate(72)">
                <path d="M-40,-20 C-60,-60 -40,-100 0,-80 C40,-100 60,-60 40,-20 C20,-30 -20,-30 -40,-20" />
            </g>
            <g transform="rotate(144)">
                <path d="M-40,-20 C-60,-60 -40,-100 0,-80 C40,-100 60,-60 40,-20 C20,-30 -20,-30 -40,-20" />
            </g>
            <g transform="rotate(216)">
                <path d="M-40,-20 C-60,-60 -40,-100 0,-80 C40,-100 60,-60 40,-20 C20,-30 -20,-30 -40,-20" />
            </g>
            <g transform="rotate(288)">
                <path d="M-40,-20 C-60,-60 -40,-100 0,-80 C40,-100 60,-60 40,-20 C20,-30 -20,-30 -40,-20" />
            </g>
        </g>

        <!-- 中层花瓣 -->
        <g id="middle-petals" transform="scale(1.5)">
            <g transform="rotate(36)">
                <path d="M-40,-20 C-70,-70 -40,-120 0,-100 C40,-120 70,-70 40,-20 C20,-40 -20,-40 -40,-20" 
                      style="opacity:0.9"/>
            </g>
            <g transform="rotate(108)">
                <path d="M-40,-20 C-70,-70 -40,-120 0,-100 C40,-120 70,-70 40,-20 C20,-40 -20,-40 -40,-20"
                      style="opacity:0.9"/>
            </g>
            <g transform="rotate(180)">
                <path d="M-40,-20 C-70,-70 -40,-120 0,-100 C40,-120 70,-70 40,-20 C20,-40 -20,-40 -40,-20"
                      style="opacity:0.9"/>
            </g>
            <g transform="rotate(252)">
                <path d="M-40,-20 C-70,-70 -40,-120 0,-100 C40,-120 70,-70 40,-20 C20,-40 -20,-40 -40,-20"
                      style="opacity:0.9"/>
            </g>
            <g transform="rotate(324)">
                <path d="M-40,-20 C-70,-70 -40,-120 0,-100 C40,-120 70,-70 40,-20 C20,-40 -20,-40 -40,-20"
                      style="opacity:0.9"/>
            </g>
        </g>

        <!-- 外层花瓣 -->
        <g id="outer-petals" transform="scale(2)">
            <g transform="rotate(0)">
                <path d="M-40,-20 C-80,-80 -40,-140 0,-120 C40,-140 80,-80 40,-20 C20,-40 -20,-40 -40,-20"
                      style="opacity:0.8"/>
            </g>
            <g transform="rotate(72)">
                <path d="M-40,-20 C-80,-80 -40,-140 0,-120 C40,-140 80,-80 40,-20 C20,-40 -20,-40 -40,-20"
                      style="opacity:0.8"/>
            </g>
            <g transform="rotate(144)">
                <path d="M-40,-20 C-80,-80 -40,-140 0,-120 C40,-140 80,-80 40,-20 C20,-40 -20,-40 -40,-20"
                      style="opacity:0.8"/>
            </g>
            <g transform="rotate(216)">
                <path d="M-40,-20 C-80,-80 -40,-140 0,-120 C40,-140 80,-80 40,-20 C20,-40 -20,-40 -40,-20"
                      style="opacity:0.8"/>
            </g>
            <g transform="rotate(288)">
                <path d="M-40,-20 C-80,-80 -40,-140 0,-120 C40,-140 80,-80 40,-20 C20,-40 -20,-40 -40,-20"
                      style="opacity:0.8"/>
            </g>
        </g>

        <!-- 花蕊 -->
        <circle cx="0" cy="0" r="30" fill="#FFE4E1" />
        <circle cx="0" cy="0" r="20" fill="#FFB6C1" />
    </g>

    <!-- 光泽效果 -->
    <ellipse cx="512" cy="300" rx="400" ry="150" 
             fill="#FFFFFF" fill-opacity="0.15" />
</svg>
